# xmcd
#
# Track frame offsets: 
#        180
#        18270
#        39220
#        58320
#        71836
#        96270
#        125251
#        139604
#        158485
#        176706
#        206660
#        239014
#        258187
#        274745
#
# Disc length: 4118 seconds
#
# Revision: 0
# Processed by: cddbd v1.4PL0 Copyright (c) Steve Scherf et al.
# Submitted via: ExactAudioCopy v0.90b3
#
DISCID=c510140e
DTITLE=boogaloo - live
DYEAR=1999
DGENRE=Jazz+Funk
TTITLE0=love or nothing
TTITLE1=chris'tal
TTITLE2=walking naked
TTITLE3=earth move
TTITLE4=gotta be
TTITLE5=ta-ta you
TTITLE6=positive
TTITLE7=money
TTITLE8=peace and love
TTITLE9=nervous breakdown
TTITLE10=private room
TTITLE11=for what it's worth
TTITLE12=mr. freedom
TTITLE13=see through
EXTD=
EXTT0=
EXTT1=
EXTT2=
EXTT3=
EXTT4=
EXTT5=
EXTT6=
EXTT7=
EXTT8=
EXTT9=
EXTT10=
EXTT11=
EXTT12=
EXTT13=
PLAYORDER=
